<svg xmlns="http://www.w3.org/2000/svg" width="695.3912963867188" height="695.6521606445312"><rect id="backgroundrect" width="100%" height="100%" x="0" y="0" fill="none" stroke="none" class="selected" style=""/>
 <defs>
  <filter id="filter4145" color-interpolation-filters="sRGB">
   <feGaussianBlur stdDeviation="3" id="feGaussianBlur4151"/>
  </filter>
  <filter id="filter4157" color-interpolation-filters="sRGB">
   <feGaussianBlur stdDeviation="3" id="feGaussianBlur4163"/>
   <feGaussianBlur id="feGaussianBlur4199" stdDeviation="3"/>
  </filter>
  <filter id="filter4169" color-interpolation-filters="sRGB">
   <feGaussianBlur stdDeviation="3" id="feGaussianBlur4175"/>
  </filter>
  <filter id="filter4181" color-interpolation-filters="sRGB">
   <feGaussianBlur stdDeviation="3" id="feGaussianBlur4187"/>
  </filter>
 </defs>
 <metadata id="metadata7">image/svg+xml</metadata>
 <g style="">
  <title>background</title>
  <rect x="-1" y="-1" width="802" height="802" id="canvas_background" fill="none"/>
 </g>
 <g style="" class="currentLayer">
  <title>Layer 1</title>
  <g id="layer1" class="">
   <path d="m244.95555168317793,190.81677967594146 l0,-43.83162 l15.40857,0 l15.40856,0 l0.6529300000000015,21.52583 c0.57842,19.06936 0.95745,21.93771 3.32138,25.13509 l2.66845,3.60927 l-18.72995,18.69653 l-18.72994,18.69652 l0,-43.83162 z" id="path4269" stroke-miterlimit="4" stroke-width="40" fill="#ffffff"/>
   <path d="m214.77082168317793,457.17216967594146 l-0.3467700000000009,-145.83661 l67.88387,-68.20713 l67.88386,-68.20713 l68.85984,68.85983 l68.85983,68.85984 l-1.30078,4.53556 c-0.83231,2.90205 -1.3007900000000001,55.19125 -1.3007900000000001,145.18392 l0,140.64834 l-135.09615,0 l-135.09615,0 l-0.3467600000000008,-145.83662 zm156.20835,85.81145 c6.6931,-2.86031 13.06355,-8.70886 15.56028,-14.28549 c1.20911,-2.70066 4.16371,-6.2347 6.56574,-7.8534500000000005 c6.15155,-4.14552 9.47282,-10.41816 9.36536,-17.68768 c-0.15559000000000042,-10.52619 -0.16054000000000054,-15.64246 -0.020000000000000046,-20.65018 c0.07520000000000017,-2.6796300000000004 0.013000000000000036,-6.33366 -0.13966,-8.12008 c-0.15203000000000036,-1.7864200000000001 0.6282200000000013,-8.21752 1.7339000000000002,-14.29134 c1.60291,-8.80522 3.98302,-14.99287 11.74408,-30.5315 c11.7664,-23.55783 13.80373,-30.73555 13.82884,-48.72047 c0.021600000000000057,-15.40592 -1.92175,-24.22805 -8.15088,-37.00364 c-23.53591,-48.27087 -87.40467,-61.99317 -128.07491,-27.5171 c-18.7956,15.933 -28.54959,35.54644 -29.82551,59.9735 c-0.9942099999999995,19.03367 1.3518000000000001,28.20868 13.2757,51.92015 c12.02851,23.91945 13.9349,32.33463 13.81938,61.00131 c-0.08800000000000023,21.84778 0.295380000000001,23.17884 9.05364,31.43046 c3.1096,2.92973 7.08689,7.75108 8.83843,10.71413 c3.92754,6.64416 11.47438,11.79595 19.39889,13.24251 c9.39841,1.7156000000000002 37.71537,0.6487000000000018 43.02673,-1.62113 l-0.000010000000000000058,0 z" id="path4267" stroke-miterlimit="4" stroke-width="51.9685" fill="#ffffff"/>
   <rect id="rect4275" width="627.5197143554688" height="631.4172973632812" x="32.6169548034668" y="34.18989944458008" rx="10" ry="10" stroke-miterlimit="4" stroke-linejoin="round" stroke-width="50" stroke="#f9f9f9" fill="#f9f9f9"/>
   <path d="m506.40437168317794,321.55354967594144 l-0.000010000000000000058,301.74265 c0,0.277 -0.2230000000000004,0.5 -0.5,0.5 l-310.81103,0 c-0.277,0 -0.5,-0.2230000000000004 -0.5,-0.5 l0,-301.74266 " id="path4188" filter="url(#filter4169)" stroke-miterlimit="4" stroke-linejoin="round" stroke-linecap="round" stroke-width="40" stroke="#212121" fill="none"/>
   <path d="m116.87444168317793,380.84422967594145 l-0.6503900000000016,-0.6504000000000006 l234.2748,-234.2748 l0,0 l234.27481,234.2748 l-0.6503900000000016,0.6503800000000006 " id="path4199" filter="url(#filter4145)" stroke-miterlimit="4" stroke-linejoin="round" stroke-linecap="round" stroke-width="40" stroke="#212121" fill="none"/>
   <path d="m234.21934168317796,241.41121967594148 l-0.000010000000000000058,-106.11896 l0,0 l54.56693,0 l0,51.55265 " id="path4214" filter="url(#filter4157)" stroke-miterlimit="4" stroke-linejoin="round" stroke-linecap="round" stroke-width="40" stroke="#212121" fill="none"/>
   <path id="path4225" d="m346.60121168317795,312.96044967594145 c37.30979,0 67.56135,30.25204 67.56135,67.56134 c0,36.73648 -22.13841,41.01939 -26.30067,81.07361 c0,3.74001 -3.01613,6.75614 -6.75613,6.75614 l-69.00909,0 c-3.74,0 -6.75613,-3.01613 -6.75613,-6.75614 l-0.015000000000000036,0 c-4.14731,-40.05422 -26.28571,-44.33713 -26.28571,-81.07361 c0,-37.3093 30.25204,-67.56134 67.56134,-67.56134 m33.78068,162.14722 c3.74,0 6.75613,3.01613 6.75613,6.75614 c0,3.74 -3.01613,6.75613 -6.75613,6.75613 l-67.56135,0 c-3.74,0 -6.75613,-3.01613 -6.75613,-6.75613 c0,-3.74001 3.01613,-6.75614 6.75613,-6.75614 l67.56135,0 m0,20.26841 c3.74,0 6.75613,3.01613 6.75613,6.75613 c0,3.74 -3.01613,6.75613 -6.75613,6.75613 l-67.56135,0 c-3.74,0 -6.75613,-3.01613 -6.75613,-6.75613 c0,-3.74 3.01613,-6.75613 6.75613,-6.75613 l67.56135,0 m-6.75614,20.2684 c0,7.46504 -6.04722,13.512270000000001 -13.512270000000001,13.512270000000001 l-27.02454,0 c-7.46504,0 -13.51226,-6.04723 -13.51226,-13.512270000000001 l54.04907,0 m-27.0245,-218.12663 c-45.76991,0 -83.00393,37.23403 -83.00393,83.00394 c0,22.98292 7.51041,36.17862 14.11549,47.83585 c5.61001,9.86299 10.46622,18.41336 12.20013,34.30861 c0.16601000000000055,3.52912 1.1765400000000001,6.84686 2.82021,9.75731 c-1.3570200000000001,2.86508 -2.1113,6.06218 -2.1113,9.44025 c0,3.64976 0.8749200000000018,7.08815 2.4433100000000003,10.1342 c-1.56839,3.04653 -2.4433100000000003,6.48492 -2.4433100000000003,10.1342 c0,9.51601 6.01731,17.64461 14.44752,20.79635 c3.22701,12.45638 14.56767,21.67078 28.01961,21.67078 l27.02454,0 c13.45195,0 24.7926,-9.2144 28.0201,-21.67078 c8.42973,-3.15174 14.44703,-11.28034 14.44703,-20.79635 c0,-3.64976 -0.8898800000000013,-7.08815 -2.45827,-10.1342 c1.56839,-3.04654 2.45827,-6.48493 2.45827,-10.1342 c0,-3.37807 -0.7542700000000013,-6.57517 -2.11129,-9.42529 c1.6436700000000006,-2.92589 2.63924,-6.2586 2.80524,-9.78723 c1.74936,-15.87981 6.59013,-24.4157 12.20013,-34.29365 c6.6205300000000005,-11.64227 14.13046,-24.85293 14.13046,-47.83585 c0,-45.76991 -37.23402,-83.00394 -83.00394,-83.00394 l0,0 z" filter="url(#filter4181)" fill="#000000"/>
   <path d="m309.071551683178,466.5532096759415 c-1.41166,-0.8239700000000006 -2.6910700000000007,-4.51089 -3.70576,-10.679 c-1.8195700000000001,-11.06084 -5.88125,-21.8717 -13.15524,-35.01489 c-10.61636,-19.18244 -13.61586,-31.88675 -11.48903,-48.6615 c5.30636,-41.85231 47.36659,-68.21179 87.55984,-54.87444 c20.51646,6.80798 36.74279,24.11021 43.02795,45.88093 c1.70594,5.90908 2.08591,10.99065 1.6368400000000007,21.89017 l-0.58486,14.19465 l-9.90488,19.68463 c-9.812850000000001,19.50171 -12.97955,28.18105 -14.6611,40.18338 c-0.5647900000000015,4.03126 -1.6970500000000008,6.65018 -3.22975,7.47047 c-3.11511,1.6671500000000008 -72.62769,1.5986500000000001 -75.49401,-0.07450000000000002 l0,0.00005000000000000025 l0,0.00005000000000000025 z" id="path4251" stroke-miterlimit="4" stroke="#2b0000" fill="#ffeb3b"/>
   <path d="m307.47353168317795,484.1361096759415 c-1.22082,-2.67941 -1.06815,-3.69508 0.8788200000000018,-5.84646 c2.25035,-2.48661 3.98188,-2.6037 38.50296,-2.6037 l36.14664,0 l2.07111,3.16091 c1.61108,2.45883 1.7518700000000007,3.75741 0.633840000000002,5.84646 c-1.40205,2.6197600000000003 -2.35971,2.68554 -39.09657,2.68554 l-37.65931,0 l-1.47749,-3.24275 z" id="path4253" stroke-miterlimit="4" stroke-width="1.29921" stroke="#2b0000" fill="#c8beb7"/>
   <path d="m308.44993168317797,506.12464967594144 c-2.3941,-2.3941 -2.52391,-3.72411 -0.6967000000000027,-7.13828 c1.28211,-2.39564 3.10043,-2.51302 38.93067,-2.51302 c36.6625,0 37.62104,0.06600000000000017 39.023,2.68555 c1.11803,2.08905 0.97724,3.38763 -0.633840000000002,5.84646 l-2.07111,3.16091 l-36.2552,0 c-31.22699,0 -36.53836,-0.28315 -38.29682,-2.04162 z" id="path4255" stroke-miterlimit="4" stroke-width="1.29921" stroke="#2b0000" fill="#c8beb7"/>
   <path d="m328.49492168317795,527.5145096759414 c-3.87806,-1.52167 -7.72624,-6.1195 -7.76639,-9.27935 c-0.026600000000000068,-2.09053 2.0636,-2.27362 25.95537,-2.27362 c15.60135,0 25.98425,0.4947200000000003 25.98425,1.23808 c0,3.34129 -3.39656,7.93908 -7.19723,9.74262 c-4.88365,2.31744 -31.47929,2.72905 -36.976,0.5722700000000006 z" id="path4257" stroke-miterlimit="4" stroke-width="1.29921" stroke="#2b0000" fill="#c8beb7"/>
  </g>
 </g>
</svg>